<?xml version="1.0" encoding="iso-8859-1"?>
<!-- Generator: Adobe Illustrator 19.0.0, SVG Export Plug-In . SVG Version: 6.00 Build 0)  -->
<svg version="1.1" id="Capa_1" xmlns="http://www.w3.org/2000/svg" xmlns:xlink="http://www.w3.org/1999/xlink" x="0px" y="0px"
	 viewBox="0 0 512 512" style="enable-background:new 0 0 512 512;" xml:space="preserve">
<path style="fill:#44C4FC;" d="M0,256.008C0,114.628,114.62-1.566,255.991,0.017C398.75,1.616,513.631,116.54,511.982,256.008
	c-1.672,141.37-114.611,255.991-255.991,255.991S0,397.388,0,256.008z"/>
<path style="fill:#29ACE5;" d="M511.982,256.008c0.07-5.943-0.087-11.837-0.434-17.683L400.905,127.68L283.772,261.887
	l-131.701-131.7l-6.62,204.688L315.569,504.99C427.841,478.102,510.553,376.833,511.982,256.008z"/>
<path style="fill:#FFFFFF;" d="M328.363,92.766c-51.265,0-92.824,41.559-92.824,92.824c0,26.062,10.746,49.611,28.042,66.471
	l-18.214,26.352h82.995c51.265,0,92.824-41.559,92.824-92.824S379.629,92.766,328.363,92.766z"/>
<path style="fill:#E0E0E0;" d="M328.363,92.766c-0.133,0-0.266,0.004-0.399,0.005v185.641h0.399
	c51.265,0,92.823-41.559,92.823-92.823C421.186,134.324,379.629,92.766,328.363,92.766z"/>
<path style="fill:#1E499E;" d="M289.74,304.14c-11.761,15.28-23.521,30.562-35.281,45.842
	c-35.234-27.117-66.81-58.693-93.927-93.927c15.28-11.761,30.562-23.52,45.842-35.281c-21.394-27.797-39.662-58.16-54.304-90.589
	c-7.611,3.436-26.667,12.041-46.925,21.187c-35.533,16.043-48.953,59.64-28.549,92.862
	c47.44,77.243,112.441,142.244,189.683,189.684c33.222,20.403,76.817,6.984,92.862-28.549c9.147-20.258,17.751-39.316,21.188-46.925
	C347.9,343.802,317.537,325.534,289.74,304.14z"/>
<path style="fill:#0E387C;" d="M289.74,304.14c-11.761,15.28-23.521,30.562-35.281,45.842
	c-18.702-14.394-36.363-30.057-52.884-46.843l-44.193,44.192c32.569,33.035,69.103,62.147,108.897,86.588
	c33.222,20.403,76.817,6.984,92.862-28.549c9.147-20.258,17.751-39.316,21.187-46.925C347.9,343.802,317.537,325.534,289.74,304.14z
	"/>
<circle style="fill:#29D371;" cx="328.878" cy="135.645" r="20.029"/>
<path style="fill:#0CBF55;" d="M328.879,115.614c-0.309,0-0.609,0.032-0.915,0.046v39.963c0.305,0.014,0.606,0.046,0.915,0.046
	c11.062,0,20.028-8.967,20.028-20.027C348.907,124.58,339.94,115.614,328.879,115.614z"/>
<rect x="312.989" y="163.614" style="fill:#29D371;" width="31.79" height="83.707"/>
<rect x="327.968" y="163.614" style="fill:#0CBF55;" width="16.809" height="83.707"/>
<g>
</g>
<g>
</g>
<g>
</g>
<g>
</g>
<g>
</g>
<g>
</g>
<g>
</g>
<g>
</g>
<g>
</g>
<g>
</g>
<g>
</g>
<g>
</g>
<g>
</g>
<g>
</g>
<g>
</g>
</svg>
