<svg height="512pt" viewBox="0 0 512 512" width="512pt" xmlns="http://www.w3.org/2000/svg"><path d="m512 256c0 141.386719-114.613281 256-256 256s-256-114.613281-256-256 114.613281-256 256-256 256 114.613281 256 256zm0 0" fill="#09ce67"/><path d="m512 256c0-13.332031-1.023438-26.425781-2.988281-39.210938l-132.265625-132.265624-241.492188 147.992187 110.78125 110.78125-.082031.167969-141.433594 72.011718 88.769531 88.773438c20.070313 5.054688 41.074219 7.75 62.710938 7.75 141.386719 0 256-114.613281 256-256zm0 0" fill="#1aad5c"/><path d="m104.519531 261.910156h302.960938v153.566406h-302.960938zm0 0" fill="#ffa300"/><path d="m255.808594 261.910156h151.671875v153.566406h-151.671875zm0 0" fill="#ff9500"/><path d="m192.710938 352.628906-88.191407 62.847656h302.960938l-88.191407-62.847656c-18.476562-13.167968-40.601562-20.242187-63.289062-20.242187s-44.8125 7.074219-63.289062 20.242187zm0 0" fill="#fdba12"/><path d="m319.289062 352.628906c-18.476562-13.167968-40.601562-20.242187-63.289062-20.242187-.0625 0-.128906.003906-.191406.003906v83.089844h151.671875zm0 0" fill="#ffa300"/><path d="m407.480469 261.910156-151.671875 111.902344-151.289063-111.902344zm0 0" fill="#ffd400"/><path d="m407.480469 261.910156h-151.671875v111.902344zm0 0" fill="#fdba12"/><path d="m376.746094 84.523438h-241.492188v147.992187h39.082032v58.367187l69.265624-58.367187h133.144532zm0 0" fill="#fff"/><path d="m255.808594 84.523438h120.9375v147.992187h-120.9375zm0 0" fill="#e9edf5"/></svg>